<svg xmlns="http://www.w3.org/2000/svg" viewBox="0 0 1600 1450" role="img"><title>Samui? Samui! — island voice</title><rect width="1600" height="1450" fill="#f5f1e6"/><text x="64" y="70" font-family="sans-serif" font-size="38" fill="#290e1c">Samui? Samui! — island voice</text><text x="64" y="108" font-family="sans-serif" font-size="18" fill="#290e1c">Approved direction C · identity kit · 6 October 2026</text><rect x="64" y="145" width="1472" height="360" fill="#290e1c"/><g transform="translate(108 178) scale(1.1328125)"><path fill="#ec7263" fill-rule="evenodd" d="M214.32 31.80 L199.24 28.68 L199.24 45.84 L185.20 65.08 L172.72 57.80 L158.16 61.96 L147.76 55.20 L146.20 46.36 L135.28 52.08 L123.32 50.00 L107.72 32.84 L38.56 44.28 L30.76 51.04 L46.88 65.08 L54.68 87.96 L54.16 129.04 L50.00 136.32 L38.04 139.96 L52.60 163.88 L57.80 208.08 L49.48 210.16 L50.00 221.60 L72.88 215.88 L89.52 229.92 L112.92 215.36 L141.00 217.44 L157.12 185.20 L170.64 182.60 L184.68 162.32 L196.12 159.72 L204.44 165.96 L208.08 159.72 L200.28 152.96 L188.32 121.24 L195.08 97.84 L211.20 83.80 L212.24 71.32 L223.16 62.48 L225.24 51.56 L214.84 46.36Z M79 109C79 71 137 71 137 109C137 128 118 132 118 147H100C100 120 119 119 119 109C119 95 97 95 97 109Z M150 83H169V147H150Z M99 165A10 10 0 1 0 119 165A10 10 0 1 0 99 165Z M149.5 165A10 10 0 1 0 169.5 165A10 10 0 1 0 149.5 165Z"/></g><g transform="translate(460 288) scale(1.75)" fill="#f5f1e6"><g><path transform="translate(0 0)" fill-rule="evenodd" d="M40 0H15C-5 0 -5 28 15 28H27C35 28 35 40 27 40H0V48H27C47 48 47 20 27 20H15C7 20 7 8 15 8H40Z"/><path transform="translate(54 0)" fill-rule="evenodd" d="M0 48L16 0H24L40 48H31L27 37H13L9 48Z M16 29H24L20 17Z"/><path transform="translate(108 0)" fill-rule="evenodd" d="M0 48V0H8L20 20L32 0H40V48H32V16L20 35L8 16V48Z"/><path transform="translate(162 0)" fill-rule="evenodd" d="M0 0H8V29C8 45 32 45 32 29V0H40V29C40 56 0 56 0 29Z"/><path transform="translate(216 0)" fill-rule="evenodd" d="M0 0H8V48H0Z"/><path transform="translate(237 0)" fill-rule="evenodd" d="M0 12C0 -6 32 -6 32 12C32 22 20 26 20 33H12C12 22 24 19 24 12C24 4 8 4 8 12Z M12 44A4 4 0 1 0 20 44A4 4 0 1 0 12 44Z"/></g><g transform="translate(312 0)"><path transform="translate(0 0)" fill-rule="evenodd" d="M40 0H15C-5 0 -5 28 15 28H27C35 28 35 40 27 40H0V48H27C47 48 47 20 27 20H15C7 20 7 8 15 8H40Z"/><path transform="translate(54 0)" fill-rule="evenodd" d="M0 48L16 0H24L40 48H31L27 37H13L9 48Z M16 29H24L20 17Z"/><path transform="translate(108 0)" fill-rule="evenodd" d="M0 48V0H8L20 20L32 0H40V48H32V16L20 35L8 16V48Z"/><path transform="translate(162 0)" fill-rule="evenodd" d="M0 0H8V29C8 45 32 45 32 29V0H40V29C40 56 0 56 0 29Z"/><path transform="translate(216 0)" fill-rule="evenodd" d="M0 0H8V48H0Z"/><path transform="translate(237 0)" fill-rule="evenodd" d="M0 0H8V33H0Z M0 44A4 4 0 1 0 8 44A4 4 0 1 0 0 44Z"/></g></g><text x="64" y="550" font-family="sans-serif" font-size="20" fill="#290e1c">Light background</text><g transform="translate(64 573) scale(0.625)"><path fill="#290e1c" fill-rule="evenodd" d="M214.32 31.80 L199.24 28.68 L199.24 45.84 L185.20 65.08 L172.72 57.80 L158.16 61.96 L147.76 55.20 L146.20 46.36 L135.28 52.08 L123.32 50.00 L107.72 32.84 L38.56 44.28 L30.76 51.04 L46.88 65.08 L54.68 87.96 L54.16 129.04 L50.00 136.32 L38.04 139.96 L52.60 163.88 L57.80 208.08 L49.48 210.16 L50.00 221.60 L72.88 215.88 L89.52 229.92 L112.92 215.36 L141.00 217.44 L157.12 185.20 L170.64 182.60 L184.68 162.32 L196.12 159.72 L204.44 165.96 L208.08 159.72 L200.28 152.96 L188.32 121.24 L195.08 97.84 L211.20 83.80 L212.24 71.32 L223.16 62.48 L225.24 51.56 L214.84 46.36Z M80 109C80 73 136 73 136 109C136 127 117 130 117 146H101C101 120 120 120 120 109C120 94 96 94 96 109Z M151 83H168V146H151Z M100 165A9 9 0 1 0 118 165A9 9 0 1 0 100 165Z M150.5 165A9 9 0 1 0 168.5 165A9 9 0 1 0 150.5 165Z"/></g><rect x="280" y="572" width="190" height="190" fill="#290e1c"/><g transform="translate(296 588) scale(0.625)"><path fill="#ffffff" fill-rule="evenodd" d="M214.32 31.80 L199.24 28.68 L199.24 45.84 L185.20 65.08 L172.72 57.80 L158.16 61.96 L147.76 55.20 L146.20 46.36 L135.28 52.08 L123.32 50.00 L107.72 32.84 L38.56 44.28 L30.76 51.04 L46.88 65.08 L54.68 87.96 L54.16 129.04 L50.00 136.32 L38.04 139.96 L52.60 163.88 L57.80 208.08 L49.48 210.16 L50.00 221.60 L72.88 215.88 L89.52 229.92 L112.92 215.36 L141.00 217.44 L157.12 185.20 L170.64 182.60 L184.68 162.32 L196.12 159.72 L204.44 165.96 L208.08 159.72 L200.28 152.96 L188.32 121.24 L195.08 97.84 L211.20 83.80 L212.24 71.32 L223.16 62.48 L225.24 51.56 L214.84 46.36Z M79 109C79 71 137 71 137 109C137 128 118 132 118 147H100C100 120 119 119 119 109C119 95 97 95 97 109Z M150 83H169V147H150Z M99 165A10 10 0 1 0 119 165A10 10 0 1 0 99 165Z M149.5 165A10 10 0 1 0 169.5 165A10 10 0 1 0 149.5 165Z"/></g><text x="280" y="550" font-family="sans-serif" font-size="20" fill="#290e1c">Reversed</text><text x="524" y="550" font-family="sans-serif" font-size="20" fill="#290e1c">Island favicon</text><g transform="translate(524 584) scale(0.25)"><path fill="#b8402f" d="M214.32 31.80 L199.24 28.68 L185.20 65.08 L158.16 61.96 L146.20 46.36 L123.32 50.00 L107.72 32.84 L30.76 51.04 L54.68 87.96 L54.16 129.04 L38.04 139.96 L52.60 163.88 L50.00 221.60 L72.88 215.88 L89.52 229.92 L112.92 215.36 L141.00 217.44 L184.68 162.32 L204.44 165.96 L188.32 121.24 L223.16 62.48Z"/></g><g transform="translate(610 608) scale(0.125)"><path fill="#b8402f" d="M214.32 31.80 L199.24 28.68 L185.20 65.08 L158.16 61.96 L146.20 46.36 L123.32 50.00 L107.72 32.84 L30.76 51.04 L54.68 87.96 L54.16 129.04 L38.04 139.96 L52.60 163.88 L50.00 221.60 L72.88 215.88 L89.52 229.92 L112.92 215.36 L141.00 217.44 L184.68 162.32 L204.44 165.96 L188.32 121.24 L223.16 62.48Z"/></g><g transform="translate(672 624) scale(0.0625)"><path fill="#b8402f" d="M214.32 31.80 L199.24 28.68 L185.20 65.08 L158.16 61.96 L146.20 46.36 L123.32 50.00 L107.72 32.84 L30.76 51.04 L54.68 87.96 L54.16 129.04 L38.04 139.96 L52.60 163.88 L50.00 221.60 L72.88 215.88 L89.52 229.92 L112.92 215.36 L141.00 217.44 L184.68 162.32 L204.44 165.96 L188.32 121.24 L223.16 62.48Z"/></g><text x="524" y="720" font-family="sans-serif" font-size="20" fill="#290e1c">Punctuation alternative</text><g transform="translate(540 743) scale(.25)"><g transform="translate(-152 -161) scale(2.25)" fill="#b8402f"><path d="M80 109C80 73 136 73 136 109C136 127 117 130 117 146H101C101 120 120 120 120 109C120 94 96 94 96 109Z M151 83H168V146H151Z M100 165A9 9 0 1 0 118 165A9 9 0 1 0 100 165Z M150.5 165A9 9 0 1 0 168.5 165A9 9 0 1 0 150.5 165Z"/></g></g><g transform="translate(610 775) scale(.125)"><g transform="translate(-152 -161) scale(2.25)" fill="#b8402f"><path d="M80 109C80 73 136 73 136 109C136 127 117 130 117 146H101C101 120 120 120 120 109C120 94 96 94 96 109Z M151 83H168V146H151Z M100 165A9 9 0 1 0 118 165A9 9 0 1 0 100 165Z M150.5 165A9 9 0 1 0 168.5 165A9 9 0 1 0 150.5 165Z"/></g></g><g transform="translate(670 791) scale(.0625)"><g transform="translate(-152 -161) scale(2.25)" fill="#b8402f"><path d="M80 109C80 73 136 73 136 109C136 127 117 130 117 146H101C101 120 120 120 120 109C120 94 96 94 96 109Z M151 83H168V146H151Z M100 165A9 9 0 1 0 118 165A9 9 0 1 0 100 165Z M150.5 165A9 9 0 1 0 168.5 165A9 9 0 1 0 150.5 165Z"/></g></g><text x="840" y="550" font-family="sans-serif" font-size="20" fill="#290e1c">Established palette</text><rect x="840" y="575" width="116" height="80" fill="#ec7263"/><text x="840" y="685" font-family="sans-serif" font-size="16" fill="#290e1c">coral</text><text x="840" y="711" font-family="sans-serif" font-size="16" fill="#290e1c">#ec7263</text><rect x="980" y="575" width="116" height="80" fill="#f5f1e6"/><text x="980" y="685" font-family="sans-serif" font-size="16" fill="#290e1c">cream</text><text x="980" y="711" font-family="sans-serif" font-size="16" fill="#290e1c">#f5f1e6</text><rect x="1120" y="575" width="116" height="80" fill="#2b2929"/><text x="1120" y="685" font-family="sans-serif" font-size="16" fill="#290e1c">ink</text><text x="1120" y="711" font-family="sans-serif" font-size="16" fill="#290e1c">#2b2929</text><rect x="1260" y="575" width="116" height="80" fill="#b8402f"/><text x="1260" y="685" font-family="sans-serif" font-size="16" fill="#290e1c">lightCoral</text><text x="1260" y="711" font-family="sans-serif" font-size="16" fill="#290e1c">#b8402f</text><rect x="1400" y="575" width="116" height="80" fill="#290e1c"/><text x="1400" y="685" font-family="sans-serif" font-size="16" fill="#290e1c">plum</text><text x="1400" y="711" font-family="sans-serif" font-size="16" fill="#290e1c">#290e1c</text><text x="64" y="855" font-family="sans-serif" font-size="20" fill="#290e1c">Website masthead</text><rect x="64" y="875" width="472" height="210" fill="#ffffff"/><rect x="64" y="875" width="472" height="86" fill="#290e1c"/><g transform="translate(80 883) scale(0.265625)"><path fill="#ec7263" fill-rule="evenodd" d="M214.32 31.80 L199.24 28.68 L199.24 45.84 L185.20 65.08 L172.72 57.80 L158.16 61.96 L147.76 55.20 L146.20 46.36 L135.28 52.08 L123.32 50.00 L107.72 32.84 L38.56 44.28 L30.76 51.04 L46.88 65.08 L54.68 87.96 L54.16 129.04 L50.00 136.32 L38.04 139.96 L52.60 163.88 L57.80 208.08 L49.48 210.16 L50.00 221.60 L72.88 215.88 L89.52 229.92 L112.92 215.36 L141.00 217.44 L157.12 185.20 L170.64 182.60 L184.68 162.32 L196.12 159.72 L204.44 165.96 L208.08 159.72 L200.28 152.96 L188.32 121.24 L195.08 97.84 L211.20 83.80 L212.24 71.32 L223.16 62.48 L225.24 51.56 L214.84 46.36Z M79 109C79 71 137 71 137 109C137 128 118 132 118 147H100C100 120 119 119 119 109C119 95 97 95 97 109Z M150 83H169V147H150Z M99 165A10 10 0 1 0 119 165A10 10 0 1 0 99 165Z M149.5 165A10 10 0 1 0 169.5 165A10 10 0 1 0 149.5 165Z"/></g><g transform="translate(164 905) scale(.55)" fill="#f5f1e6"><g><path transform="translate(0 0)" fill-rule="evenodd" d="M40 0H15C-5 0 -5 28 15 28H27C35 28 35 40 27 40H0V48H27C47 48 47 20 27 20H15C7 20 7 8 15 8H40Z"/><path transform="translate(54 0)" fill-rule="evenodd" d="M0 48L16 0H24L40 48H31L27 37H13L9 48Z M16 29H24L20 17Z"/><path transform="translate(108 0)" fill-rule="evenodd" d="M0 48V0H8L20 20L32 0H40V48H32V16L20 35L8 16V48Z"/><path transform="translate(162 0)" fill-rule="evenodd" d="M0 0H8V29C8 45 32 45 32 29V0H40V29C40 56 0 56 0 29Z"/><path transform="translate(216 0)" fill-rule="evenodd" d="M0 0H8V48H0Z"/><path transform="translate(237 0)" fill-rule="evenodd" d="M0 12C0 -6 32 -6 32 12C32 22 20 26 20 33H12C12 22 24 19 24 12C24 4 8 4 8 12Z M12 44A4 4 0 1 0 20 44A4 4 0 1 0 12 44Z"/></g><g transform="translate(312 0)"><path transform="translate(0 0)" fill-rule="evenodd" d="M40 0H15C-5 0 -5 28 15 28H27C35 28 35 40 27 40H0V48H27C47 48 47 20 27 20H15C7 20 7 8 15 8H40Z"/><path transform="translate(54 0)" fill-rule="evenodd" d="M0 48L16 0H24L40 48H31L27 37H13L9 48Z M16 29H24L20 17Z"/><path transform="translate(108 0)" fill-rule="evenodd" d="M0 48V0H8L20 20L32 0H40V48H32V16L20 35L8 16V48Z"/><path transform="translate(162 0)" fill-rule="evenodd" d="M0 0H8V29C8 45 32 45 32 29V0H40V29C40 56 0 56 0 29Z"/><path transform="translate(216 0)" fill-rule="evenodd" d="M0 0H8V48H0Z"/><path transform="translate(237 0)" fill-rule="evenodd" d="M0 0H8V33H0Z M0 44A4 4 0 1 0 8 44A4 4 0 1 0 0 44Z"/></g></g><text x="84" y="996" font-family="sans-serif" font-size="22" fill="#290e1c">Geschichten von Koh Samui</text><text x="84" y="1030" font-family="sans-serif" font-size="15" fill="#290e1c">Alltag und Inselgeschichten.</text><text x="564" y="855" font-family="sans-serif" font-size="20" fill="#290e1c">Article signature</text><rect x="564" y="875" width="472" height="210" fill="#ffffff"/><text x="584" y="920" font-family="sans-serif" font-size="24" fill="#290e1c">Ein neuer Tag auf der Insel</text><text x="584" y="955" font-family="sans-serif" font-size="16" fill="#290e1c">Ein Beitrag auf Samui? Samui!</text><g transform="translate(586 980) scale(0.3125)"><path fill="#290e1c" fill-rule="evenodd" d="M214.32 31.80 L199.24 28.68 L199.24 45.84 L185.20 65.08 L172.72 57.80 L158.16 61.96 L147.76 55.20 L146.20 46.36 L135.28 52.08 L123.32 50.00 L107.72 32.84 L38.56 44.28 L30.76 51.04 L46.88 65.08 L54.68 87.96 L54.16 129.04 L50.00 136.32 L38.04 139.96 L52.60 163.88 L57.80 208.08 L49.48 210.16 L50.00 221.60 L72.88 215.88 L89.52 229.92 L112.92 215.36 L141.00 217.44 L157.12 185.20 L170.64 182.60 L184.68 162.32 L196.12 159.72 L204.44 165.96 L208.08 159.72 L200.28 152.96 L188.32 121.24 L195.08 97.84 L211.20 83.80 L212.24 71.32 L223.16 62.48 L225.24 51.56 L214.84 46.36Z M80 109C80 73 136 73 136 109C136 127 117 130 117 146H101C101 120 120 120 120 109C120 94 96 94 96 109Z M151 83H168V146H151Z M100 165A9 9 0 1 0 118 165A9 9 0 1 0 100 165Z M150.5 165A9 9 0 1 0 168.5 165A9 9 0 1 0 150.5 165Z"/></g><text x="1064" y="855" font-family="sans-serif" font-size="20" fill="#290e1c">Social avatar</text><rect x="1064" y="875" width="472" height="210" fill="#290e1c"/><g transform="translate(1212 887) scale(0.703125)"><path fill="#ec7263" fill-rule="evenodd" d="M214.32 31.80 L199.24 28.68 L199.24 45.84 L185.20 65.08 L172.72 57.80 L158.16 61.96 L147.76 55.20 L146.20 46.36 L135.28 52.08 L123.32 50.00 L107.72 32.84 L38.56 44.28 L30.76 51.04 L46.88 65.08 L54.68 87.96 L54.16 129.04 L50.00 136.32 L38.04 139.96 L52.60 163.88 L57.80 208.08 L49.48 210.16 L50.00 221.60 L72.88 215.88 L89.52 229.92 L112.92 215.36 L141.00 217.44 L157.12 185.20 L170.64 182.60 L184.68 162.32 L196.12 159.72 L204.44 165.96 L208.08 159.72 L200.28 152.96 L188.32 121.24 L195.08 97.84 L211.20 83.80 L212.24 71.32 L223.16 62.48 L225.24 51.56 L214.84 46.36Z M79 109C79 71 137 71 137 109C137 128 118 132 118 147H100C100 120 119 119 119 109C119 95 97 95 97 109Z M150 83H169V147H150Z M99 165A10 10 0 1 0 119 165A10 10 0 1 0 99 165Z M149.5 165A10 10 0 1 0 169.5 165A10 10 0 1 0 149.5 165Z"/></g><text x="64" y="1120" font-family="sans-serif" font-size="20" fill="#290e1c">Newsletter</text><rect x="64" y="1140" width="472" height="210" fill="#ffffff"/><rect x="64" y="1140" width="472" height="86" fill="#290e1c"/><g transform="translate(80 1148) scale(0.265625)"><path fill="#ec7263" fill-rule="evenodd" d="M214.32 31.80 L199.24 28.68 L199.24 45.84 L185.20 65.08 L172.72 57.80 L158.16 61.96 L147.76 55.20 L146.20 46.36 L135.28 52.08 L123.32 50.00 L107.72 32.84 L38.56 44.28 L30.76 51.04 L46.88 65.08 L54.68 87.96 L54.16 129.04 L50.00 136.32 L38.04 139.96 L52.60 163.88 L57.80 208.08 L49.48 210.16 L50.00 221.60 L72.88 215.88 L89.52 229.92 L112.92 215.36 L141.00 217.44 L157.12 185.20 L170.64 182.60 L184.68 162.32 L196.12 159.72 L204.44 165.96 L208.08 159.72 L200.28 152.96 L188.32 121.24 L195.08 97.84 L211.20 83.80 L212.24 71.32 L223.16 62.48 L225.24 51.56 L214.84 46.36Z M79 109C79 71 137 71 137 109C137 128 118 132 118 147H100C100 120 119 119 119 109C119 95 97 95 97 109Z M150 83H169V147H150Z M99 165A10 10 0 1 0 119 165A10 10 0 1 0 99 165Z M149.5 165A10 10 0 1 0 169.5 165A10 10 0 1 0 149.5 165Z"/></g><g transform="translate(164 1170) scale(.55)" fill="#f5f1e6"><g><path transform="translate(0 0)" fill-rule="evenodd" d="M40 0H15C-5 0 -5 28 15 28H27C35 28 35 40 27 40H0V48H27C47 48 47 20 27 20H15C7 20 7 8 15 8H40Z"/><path transform="translate(54 0)" fill-rule="evenodd" d="M0 48L16 0H24L40 48H31L27 37H13L9 48Z M16 29H24L20 17Z"/><path transform="translate(108 0)" fill-rule="evenodd" d="M0 48V0H8L20 20L32 0H40V48H32V16L20 35L8 16V48Z"/><path transform="translate(162 0)" fill-rule="evenodd" d="M0 0H8V29C8 45 32 45 32 29V0H40V29C40 56 0 56 0 29Z"/><path transform="translate(216 0)" fill-rule="evenodd" d="M0 0H8V48H0Z"/><path transform="translate(237 0)" fill-rule="evenodd" d="M0 12C0 -6 32 -6 32 12C32 22 20 26 20 33H12C12 22 24 19 24 12C24 4 8 4 8 12Z M12 44A4 4 0 1 0 20 44A4 4 0 1 0 12 44Z"/></g><g transform="translate(312 0)"><path transform="translate(0 0)" fill-rule="evenodd" d="M40 0H15C-5 0 -5 28 15 28H27C35 28 35 40 27 40H0V48H27C47 48 47 20 27 20H15C7 20 7 8 15 8H40Z"/><path transform="translate(54 0)" fill-rule="evenodd" d="M0 48L16 0H24L40 48H31L27 37H13L9 48Z M16 29H24L20 17Z"/><path transform="translate(108 0)" fill-rule="evenodd" d="M0 48V0H8L20 20L32 0H40V48H32V16L20 35L8 16V48Z"/><path transform="translate(162 0)" fill-rule="evenodd" d="M0 0H8V29C8 45 32 45 32 29V0H40V29C40 56 0 56 0 29Z"/><path transform="translate(216 0)" fill-rule="evenodd" d="M0 0H8V48H0Z"/><path transform="translate(237 0)" fill-rule="evenodd" d="M0 0H8V33H0Z M0 44A4 4 0 1 0 8 44A4 4 0 1 0 0 44Z"/></g></g><text x="84" y="1261" font-family="sans-serif" font-size="22" fill="#290e1c">Neues aus Samui</text><text x="84" y="1295" font-family="sans-serif" font-size="15" fill="#290e1c">Alltag und Inselgeschichten.</text><text x="564" y="1120" font-family="sans-serif" font-size="20" fill="#290e1c">Browser tab</text><rect x="564" y="1140" width="472" height="210" fill="#ffffff"/><rect x="564" y="1140" width="472" height="48" fill="#f5f1e6"/><g transform="translate(580 1154) scale(0.078125)"><path fill="#b8402f" d="M214.32 31.80 L199.24 28.68 L185.20 65.08 L158.16 61.96 L146.20 46.36 L123.32 50.00 L107.72 32.84 L30.76 51.04 L54.68 87.96 L54.16 129.04 L38.04 139.96 L52.60 163.88 L50.00 221.60 L72.88 215.88 L89.52 229.92 L112.92 215.36 L141.00 217.44 L184.68 162.32 L204.44 165.96 L188.32 121.24 L223.16 62.48Z"/></g><text x="612" y="1170" font-family="sans-serif" font-size="16" fill="#290e1c">Samui? Samui!</text><text x="584" y="1236" font-family="sans-serif" font-size="23" fill="#290e1c">samui-samui.de</text><text x="1064" y="1120" font-family="sans-serif" font-size="20" fill="#290e1c">Sticker</text><rect x="1064" y="1140" width="472" height="210" fill="#290e1c"/><g transform="translate(1212 1152) scale(0.703125)"><path fill="#ec7263" fill-rule="evenodd" d="M214.32 31.80 L199.24 28.68 L199.24 45.84 L185.20 65.08 L172.72 57.80 L158.16 61.96 L147.76 55.20 L146.20 46.36 L135.28 52.08 L123.32 50.00 L107.72 32.84 L38.56 44.28 L30.76 51.04 L46.88 65.08 L54.68 87.96 L54.16 129.04 L50.00 136.32 L38.04 139.96 L52.60 163.88 L57.80 208.08 L49.48 210.16 L50.00 221.60 L72.88 215.88 L89.52 229.92 L112.92 215.36 L141.00 217.44 L157.12 185.20 L170.64 182.60 L184.68 162.32 L196.12 159.72 L204.44 165.96 L208.08 159.72 L200.28 152.96 L188.32 121.24 L195.08 97.84 L211.20 83.80 L212.24 71.32 L223.16 62.48 L225.24 51.56 L214.84 46.36Z M79 109C79 71 137 71 137 109C137 128 118 132 118 147H100C100 120 119 119 119 109C119 95 97 95 97 109Z M150 83H169V147H150Z M99 165A10 10 0 1 0 119 165A10 10 0 1 0 99 165Z M149.5 165A10 10 0 1 0 169.5 165A10 10 0 1 0 149.5 165Z"/></g></svg>
