<svg xmlns="http://www.w3.org/2000/svg" viewBox="0 0 256 256" role="img"><title>Samui? Samui! — island voice</title><rect width="256" height="256" rx="12" fill="#290e1c"/><g transform="translate(32 32) scale(0.75)"><g transform="translate(-152 -161) scale(2.25)" fill="#ec7263"><path d="M80 109C80 73 136 73 136 109C136 127 117 130 117 146H101C101 120 120 120 120 109C120 94 96 94 96 109Z M151 83H168V146H151Z M100 165A9 9 0 1 0 118 165A9 9 0 1 0 100 165Z M150.5 165A9 9 0 1 0 168.5 165A9 9 0 1 0 150.5 165Z"/></g></g></svg>
