<svg xmlns="http://www.w3.org/2000/svg" viewBox="0 0 256 352" role="img"><title>Samui? Samui! — island voice</title><g transform="translate(0 -6)"><path fill="#ffffff" fill-rule="evenodd" d="M214.32 31.80 L199.24 28.68 L199.24 45.84 L185.20 65.08 L172.72 57.80 L158.16 61.96 L147.76 55.20 L146.20 46.36 L135.28 52.08 L123.32 50.00 L107.72 32.84 L38.56 44.28 L30.76 51.04 L46.88 65.08 L54.68 87.96 L54.16 129.04 L50.00 136.32 L38.04 139.96 L52.60 163.88 L57.80 208.08 L49.48 210.16 L50.00 221.60 L72.88 215.88 L89.52 229.92 L112.92 215.36 L141.00 217.44 L157.12 185.20 L170.64 182.60 L184.68 162.32 L196.12 159.72 L204.44 165.96 L208.08 159.72 L200.28 152.96 L188.32 121.24 L195.08 97.84 L211.20 83.80 L212.24 71.32 L223.16 62.48 L225.24 51.56 L214.84 46.36Z M61.48327496360682 99.23086984957487Q70.83840903816535 75.99999999999999 98.77823899238379 75.99999999999999Q115.35377856072913 75.99999999999999 124.67751956792337 83.22040549378677Q134.0012605751176 90.44081098757357 134.0012605751176 102.74689339437539Q134.0012605751176 107.07913669064747 132.745537880546 110.68933943754087Q131.48981518597438 114.29954218443426 129.63762421148124 116.65402223675605Q127.78543323698811 119.00850228907782 125.11702251102344 121.17462393721385Q122.44861178505874 123.3407455853499 120.12552480010126 124.59646827992151Q117.80243781514378 125.85219097449313 115.03984788708621 127.42184434270764Q112.27725795902867 128.99149771092215 110.83317686027131 130.1216481360366Q107.25436718074221 132.88423806409418 107.25436718074221 136.0235448005232Q107.25436718074221 139.10006540222366 106.06143062089916 140.26160889470242Q104.86849406105614 141.42315238718115 101.85475959408426 141.42315238718115H86.40937045085339Q83.3956359838815 141.42315238718115 82.20269942403847 140.26160889470242Q81.00976286419544 139.10006540222366 81.00976286419544 136.0235448005232Q81.00976286419544 130.1216481360366 82.54802316504566 125.78940483976454Q84.08628346589589 121.45716154349248 86.12683284457478 119.25964682799214Q88.16738222325364 117.06213211249181 91.18111669022552 115.30412034009154Q92.62519778898289 114.42511445389142 94.91689170657608 113.29496402877697Q97.20858562416927 112.16481360366251 98.65266672292664 111.41137998691954Q100.096747821684 110.65794637017657 101.60361505516994 109.46500981033354Q103.11048228865587 108.27207325049051 103.83252283803455 106.60824068018312Q104.55456338741322 104.94440810987572 104.55456338741322 102.74689339437539Q104.55456338741322 100.48659254414649 103.07908922129158 99.1052975801177Q101.60361505516994 97.72400261608894 98.77823899238379 97.72400261608894Q95.13664317812612 97.72400261608894 92.9077353952615 100.1412688031393Q90.67882761239687 102.55853499018966 87.85345154961074 108.89993459777631Q86.47215658558197 112.03924133420534 85.0594685541889 112.79267495094832Q83.64678052279584 113.54610856769129 80.63304605582395 112.47874427730542L64.93651237367877 106.57684761281882Q61.98556404143547 105.44669718770437 61.16934428996392 103.84565075212556Q60.35312453849237 102.24460431654676 61.48327496360682 99.23086984957487ZM78.8750342834237 161.5775016350556V155.0477436232832Q78.8750342834237 149.083060824068 81.1353351336526 146.8541530412034Q83.3956359838815 144.62524525833877 89.36031878309669 144.62524525833877H99.4061003396696Q105.43356927361336 144.62524525833877 107.69387012384226 146.8541530412034Q109.95417097407118 149.083060824068 109.95417097407118 155.0477436232832V161.5775016350556Q109.95417097407118 167.54218443427075 107.69387012384226 169.7710922171354Q105.43356927361336 172.0 99.4061003396696 172.0H89.36031878309669Q83.3956359838815 172.0 81.1353351336526 169.7710922171354Q78.8750342834237 167.54218443427075 78.8750342834237 161.5775016350556ZM140.53101858689 161.5775016350556V155.0477436232832Q140.53101858689 149.083060824068 142.79131943711894 146.8541530412034Q145.05162028734782 144.62524525833877 151.07908922129158 144.62524525833877H161.12487077786452Q167.15233971180828 144.62524525833877 169.41264056203715 146.8541530412034Q171.67294141226608 149.083060824068 171.67294141226608 155.0477436232832V161.5775016350556Q171.67294141226608 167.54218443427075 169.41264056203715 169.7710922171354Q167.15233971180828 172.0 161.12487077786452 172.0H151.07908922129158Q145.05162028734782 172.0 142.79131943711894 169.7710922171354Q140.53101858689 167.54218443427075 140.53101858689 161.5775016350556ZM141.8495274161902 80.96010464355787Q141.78674128146162 78.19751471550032 142.94828477394037 77.09875735775015Q144.10982826641913 75.99999999999999 146.99799046393383 75.99999999999999H165.51990020886518Q168.40806240637988 75.99999999999999 169.56960589885864 77.09875735775015Q170.73114939133737 78.19751471550032 170.66836325660879 80.96010464355787L168.3452762716513 134.57946370176586Q168.21970400219413 137.53041203400915 167.18373277917254 138.62916939175932Q166.14776155615095 139.72792674950946 163.32238549336483 139.72792674950946H149.069932909977Q146.24455684719086 139.72792674950946 145.2085856241693 138.62916939175932Q144.1726144011477 137.53041203400915 144.04704213169055 134.57946370176586L141.8495274161902 80.96010464355787Z"/></g><g transform="translate(43 252) scale(.64)" fill="#ffffff"><path d="M1.098989898989899 36.75151515151515Q1.5191919191919192 35.91111111111111 3.0383838383838384 35.36161616161616L10.666666666666668 32.64646464646464Q11.701010101010102 32.226262626262624 12.476767676767677 32.226262626262624Q12.8 32.226262626262624 13.090909090909092 32.29090909090909Q14.02828282828283 32.54949494949495 14.901010101010101 33.971717171717174Q16.323232323232325 36.36363636363636 21.301010101010103 36.36363636363636Q24.080808080808083 36.36363636363636 25.47070707070707 35.862626262626264Q26.860606060606063 35.36161616161616 26.860606060606063 34.03636363636363Q26.860606060606063 33.35757575757576 26.40808080808081 32.85656565656566Q25.955555555555556 32.355555555555554 24.93737373737374 32.01616161616161Q23.91919191919192 31.676767676767675 22.933333333333334 31.466666666666665Q21.94747474747475 31.256565656565655 20.26666666666667 30.9979797979798Q14.44848484848485 30.028282828282826 12.024242424242425 29.252525252525253Q4.428282828282828 26.828282828282827 2.2626262626262625 20.783838383838383Q1.3252525252525253 18.197979797979798 1.3252525252525253 14.836363636363636Q1.3252525252525253 8.080808080808076 6.7555555555555555 4.0404040404040416Q12.185858585858586 0.0 21.721212121212123 0.0Q29.284848484848485 0.0 33.93939393939394 2.1010101010100968Q38.593939393939394 4.202020202020201 40.92121212121212 8.888888888888886Q41.37373737373738 9.826262626262626 41.37373737373738 10.505050505050505Q41.37373737373738 10.892929292929288 41.24444444444445 11.216161616161614Q40.85656565656566 12.056565656565652 39.240404040404044 12.703030303030303L31.12727272727273 16.16161616161616Q30.15757575757576 16.58181818181818 29.511111111111113 16.58181818181818Q29.18787878787879 16.58181818181818 28.961616161616163 16.484848484848484Q28.21818181818182 16.19393939393939 27.410101010101013 14.707070707070706Q26.084848484848486 12.185858585858583 21.721212121212123 12.185858585858583Q16.93737373737374 12.185858585858583 16.93737373737374 14.51313131313131Q16.93737373737374 14.93333333333333 17.066666666666666 15.256565656565655Q17.195959595959597 15.57979797979798 17.535353535353536 15.854545454545452Q17.874747474747476 16.129292929292927 18.181818181818183 16.339393939393936Q18.48888888888889 16.54949494949495 19.11919191919192 16.74343434343434Q19.74949494949495 16.937373737373736 20.185858585858586 17.05050505050505Q20.622222222222224 17.16363636363636 21.494949494949495 17.30909090909091Q22.36767676767677 17.454545454545453 22.884848484848487 17.535353535353533Q23.402020202020203 17.616161616161616 24.436363636363637 17.745454545454542Q26.56969696969697 18.068686868686868 27.846464646464646 18.294949494949492Q29.123232323232326 18.52121212121212 31.272727272727273 19.119191919191916Q33.422222222222224 19.717171717171716 34.74747474747475 20.395959595959596Q36.07272727272728 21.074747474747472 37.721212121212126 22.31919191919192Q39.369696969696975 23.563636363636363 40.290909090909096 25.0989898989899Q41.21212121212121 26.63434343434343 41.85858585858586 28.913131313131313Q42.505050505050505 31.19191919191919 42.505050505050505 33.971717171717174Q42.505050505050505 37.72121212121212 40.77575757575758 40.64646464646464Q39.04646464646465 43.57171717171717 36.04040404040404 45.365656565656565Q33.034343434343434 47.15959595959596 29.236363636363638 48.08080808080808Q25.43838383838384 49.002020202020205 21.107070707070708 49.002020202020205Q16.25858585858586 49.002020202020205 12.2989898989899 47.98383838383838Q8.33939393939394 46.965656565656566 5.365656565656566 44.7030303030303Q2.3919191919191922 42.44040404040404 1.1959595959595961 39.14343434343434Q0.9050505050505051 38.303030303030305 0.9050505050505051 37.656565656565654Q0.9050505050505051 37.107070707070704 1.098989898989899 36.75151515151515ZM43.21616161616162 47.28888888888889Q43.054545454545455 46.965656565656566 43.054545454545455 46.51313131313131Q43.054545454545455 45.93131313131313 43.34545454545455 45.15555555555556L58.11717171717172 3.393939393939391Q58.56969696969697 1.9717171717171667 59.34545454545455 1.4868686868686822Q60.121212121212125 1.0020202020201978 61.67272727272728 1.0020202020201978H71.46666666666667Q72.9858585858586 1.0020202020201978 73.77777777777779 1.4868686868686822Q74.56969696969698 1.9717171717171667 75.05454545454546 3.329292929292926L89.89090909090909 45.15555555555556Q90.11717171717173 45.83434343434343 90.11717171717173 46.35151515151515Q90.11717171717173 48.0 87.82222222222222 48.0H78.57777777777778Q76.08888888888889 48.0 74.98989898989899 47.3050505050505Q73.89090909090909 46.61010101010101 73.53535353535354 44.96161616161616L72.5979797979798 41.567676767676765H60.153535353535354L59.24848484848485 44.96161616161616Q58.7959595959596 46.64242424242424 57.7939393939394 47.32121212121212Q56.79191919191919 48.0 54.46464646464647 48.0H45.18787878787879Q43.604040404040404 48.0 43.21616161616162 47.28888888888889ZM63.48282828282829 29.543434343434342H69.36565656565656L67.91111111111111 24.242424242424242Q67.39393939393939 22.367676767676766 67.08686868686868 20.07272727272727Q66.77979797979798 17.777777777777775 66.71515151515152 16.452525252525252L66.65050505050506 15.094949494949496H65.97171717171717Q65.97171717171717 15.48282828282828 65.97171717171717 15.87070707070707Q65.97171717171717 20.2989898989899 64.93737373737375 24.177777777777777L63.48282828282829 29.543434343434342ZM92.50909090909092 45.220202020202024V3.7171717171717162Q92.50909090909092 2.133333333333333 93.13939393939394 1.5353535353535364Q93.76969696969698 0.9373737373737328 95.41818181818182 0.9373737373737328H103.4989898989899Q105.27676767676768 0.9373737373737328 106.06868686868687 1.3252525252525231Q106.86060606060606 1.7131313131313135 107.6040404040404 2.9737373737373716L117.26868686868687 23.563636363636363L126.99797979797981 3.0383838383838366Q127.74141414141415 1.7131313131313135 128.45252525252525 1.3252525252525231Q129.16363636363636 0.9373737373737328 130.84444444444446 0.9373737373737328H139.3777777777778Q141.02626262626262 0.9373737373737328 141.65656565656568 1.5353535353535364Q142.2868686868687 2.133333333333333 142.2868686868687 3.7171717171717162V45.220202020202024Q142.2868686868687 46.80404040404041 141.65656565656568 47.4020202020202Q141.02626262626262 48.0 139.3777777777778 48.0H129.9717171717172Q128.32323232323233 48.0 127.69292929292929 47.4020202020202Q127.06262626262627 46.80404040404041 127.06262626262627 45.220202020202024V41.11515151515152Q127.06262626262627 37.01010101010101 127.72525252525253 32.98585858585859Q128.3878787878788 28.96161616161616 130.65050505050505 21.333333333333332H129.84242424242424Q126.93333333333334 29.155555555555555 126.12525252525253 30.9979797979798L123.28080808080809 37.52727272727273Q122.82828282828284 38.56161616161616 122.13333333333334 39.01414141414141Q121.43838383838384 39.46666666666667 120.04848484848486 39.46666666666667H114.23030303030303Q112.84040404040405 39.46666666666667 112.11313131313132 39.03030303030303Q111.38585858585859 38.593939393939394 110.9010101010101 37.52727272727273L107.92727272727274 30.9979797979798Q107.6040404040404 30.31919191919192 106.76363636363637 27.91111111111111Q105.92323232323233 25.5030303030303 105.24444444444445 23.434343434343432L104.56565656565657 21.333333333333332H103.75757575757576Q105.9878787878788 29.93131313131313 106.56969696969698 33.567676767676765Q107.15151515151516 37.204040404040406 107.15151515151516 41.17979797979798V45.220202020202024Q107.15151515151516 46.80404040404041 106.5050505050505 47.4020202020202Q105.85858585858587 48.0 104.21010101010101 48.0H95.41818181818182Q93.76969696969698 48.0 93.13939393939394 47.4020202020202Q92.50909090909092 46.80404040404041 92.50909090909092 45.220202020202024ZM147.16767676767677 30.06060606060606V3.9111111111111114Q147.16767676767677 2.262626262626263 147.7979797979798 1.6323232323232304Q148.42828282828285 1.0020202020201978 150.07676767676767 1.0020202020201978H159.61212121212122Q161.26060606060608 1.0020202020201978 161.8909090909091 1.6323232323232304Q162.52121212121213 2.262626262626263 162.52121212121213 3.9111111111111114V30.9979797979798Q162.52121212121213 33.292929292929294 163.87878787878788 34.521212121212116Q165.23636363636365 35.749494949494945 167.8868686868687 35.749494949494945Q170.53737373737374 35.749494949494945 171.89494949494951 34.521212121212116Q173.25252525252526 33.292929292929294 173.25252525252526 30.9979797979798V3.9111111111111114Q173.25252525252526 2.262626262626263 173.88282828282829 1.6323232323232304Q174.5131313131313 1.0020202020201978 176.16161616161617 1.0020202020201978H185.69696969696972Q187.34545454545454 1.0020202020201978 187.9757575757576 1.6323232323232304Q188.60606060606062 2.262626262626263 188.60606060606062 3.9111111111111114V30.06060606060606Q188.60606060606062 38.852525252525254 183.25656565656567 43.92727272727273Q177.90707070707072 49.002020202020205 167.8868686868687 49.002020202020205Q157.86666666666667 49.002020202020205 152.51717171717172 43.92727272727273Q147.16767676767677 38.852525252525254 147.16767676767677 30.06060606060606ZM193.4868686868687 45.34949494949495V3.652525252525251Q193.4868686868687 2.165656565656562 194.06868686868688 1.5838383838383834Q194.65050505050507 1.0020202020201978 196.13737373737374 1.0020202020201978H206.189898989899Q207.6767676767677 1.0020202020201978 208.25858585858586 1.5838383838383834Q208.84040404040405 2.165656565656562 208.84040404040405 3.652525252525251V45.34949494949495Q208.84040404040405 46.836363636363636 208.25858585858586 47.41818181818182Q207.6767676767677 48.0 206.189898989899 48.0H196.13737373737374Q194.65050505050507 48.0 194.06868686868688 47.41818181818182Q193.4868686868687 46.836363636363636 193.4868686868687 45.34949494949495ZM212.91313131313132 11.054545454545455Q217.72929292929294 -0.9050505050505109 232.11313131313133 -0.9050505050505109Q240.64646464646466 -0.9050505050505109 245.44646464646465 2.8121212121212125Q250.24646464646466 6.529292929292929 250.24646464646466 12.864646464646462Q250.24646464646466 15.094949494949496 249.60000000000002 16.95353535353535Q248.95353535353536 18.81212121212121 248.0 20.024242424242424Q247.04646464646467 21.236363636363635 245.6727272727273 22.35151515151515Q244.2989898989899 23.466666666666665 243.10303030303032 24.113131313131312Q241.90707070707072 24.75959595959596 240.4848484848485 25.567676767676765Q239.06262626262628 26.375757575757575 238.31919191919192 26.957575757575757Q236.47676767676768 28.379797979797978 236.47676767676768 29.995959595959594Q236.47676767676768 31.57979797979798 235.86262626262626 32.17777777777778Q235.24848484848485 32.775757575757574 233.69696969696972 32.775757575757574H225.74545454545455Q224.19393939393942 32.775757575757574 223.579797979798 32.17777777777778Q222.9656565656566 31.57979797979798 222.9656565656566 29.995959595959594Q222.9656565656566 26.957575757575757 223.75757575757578 24.727272727272727Q224.54949494949497 22.496969696969696 225.60000000000002 21.365656565656565Q226.65050505050507 20.234343434343433 228.2020202020202 19.32929292929293Q228.94545454545457 18.876767676767674 230.12525252525253 18.294949494949492Q231.30505050505053 17.71313131313131 232.04848484848486 17.325252525252523Q232.7919191919192 16.937373737373736 233.56767676767677 16.32323232323232Q234.34343434343435 15.70909090909091 234.71515151515152 14.852525252525254Q235.0868686868687 13.995959595959597 235.0868686868687 12.864646464646462Q235.0868686868687 11.701010101010098 234.32727272727274 10.98989898989899Q233.56767676767677 10.278787878787874 232.11313131313133 10.278787878787874Q230.23838383838384 10.278787878787874 229.0909090909091 11.523232323232321Q227.94343434343435 12.767676767676768 226.4888888888889 16.03232323232323Q225.7777777777778 17.64848484848485 225.05050505050505 18.036363636363635Q224.32323232323233 18.424242424242422 222.77171717171717 17.874747474747473L214.69090909090912 14.836363636363636Q213.17171717171718 14.25454545454545 212.75151515151515 13.43030303030303Q212.33131313131315 12.606060606060602 212.91313131313132 11.054545454545455ZM221.86666666666667 43.15151515151515V39.78989898989899Q221.86666666666667 36.71919191919192 223.03030303030303 35.57171717171717Q224.19393939393942 34.42424242424242 227.2646464646465 34.42424242424242H232.43636363636364Q235.53939393939396 34.42424242424242 236.70303030303032 35.57171717171717Q237.86666666666667 36.71919191919192 237.86666666666667 39.78989898989899V43.15151515151515Q237.86666666666667 46.22222222222222 236.70303030303032 47.36969696969697Q235.53939393939396 48.51717171717172 232.43636363636364 48.51717171717172H227.2646464646465Q224.19393939393942 48.51717171717172 223.03030303030303 47.36969696969697Q221.86666666666667 46.22222222222222 221.86666666666667 43.15151515151515Z"/></g><g transform="translate(43 300) scale(.64)" fill="#ffffff"><path d="M1.098989898989899 36.75151515151515Q1.5191919191919192 35.91111111111111 3.0383838383838384 35.36161616161616L10.666666666666668 32.64646464646464Q11.701010101010102 32.226262626262624 12.476767676767677 32.226262626262624Q12.8 32.226262626262624 13.090909090909092 32.29090909090909Q14.02828282828283 32.54949494949495 14.901010101010101 33.971717171717174Q16.323232323232325 36.36363636363636 21.301010101010103 36.36363636363636Q24.080808080808083 36.36363636363636 25.47070707070707 35.862626262626264Q26.860606060606063 35.36161616161616 26.860606060606063 34.03636363636363Q26.860606060606063 33.35757575757576 26.40808080808081 32.85656565656566Q25.955555555555556 32.355555555555554 24.93737373737374 32.01616161616161Q23.91919191919192 31.676767676767675 22.933333333333334 31.466666666666665Q21.94747474747475 31.256565656565655 20.26666666666667 30.9979797979798Q14.44848484848485 30.028282828282826 12.024242424242425 29.252525252525253Q4.428282828282828 26.828282828282827 2.2626262626262625 20.783838383838383Q1.3252525252525253 18.197979797979798 1.3252525252525253 14.836363636363636Q1.3252525252525253 8.080808080808076 6.7555555555555555 4.0404040404040416Q12.185858585858586 0.0 21.721212121212123 0.0Q29.284848484848485 0.0 33.93939393939394 2.1010101010100968Q38.593939393939394 4.202020202020201 40.92121212121212 8.888888888888886Q41.37373737373738 9.826262626262626 41.37373737373738 10.505050505050505Q41.37373737373738 10.892929292929288 41.24444444444445 11.216161616161614Q40.85656565656566 12.056565656565652 39.240404040404044 12.703030303030303L31.12727272727273 16.16161616161616Q30.15757575757576 16.58181818181818 29.511111111111113 16.58181818181818Q29.18787878787879 16.58181818181818 28.961616161616163 16.484848484848484Q28.21818181818182 16.19393939393939 27.410101010101013 14.707070707070706Q26.084848484848486 12.185858585858583 21.721212121212123 12.185858585858583Q16.93737373737374 12.185858585858583 16.93737373737374 14.51313131313131Q16.93737373737374 14.93333333333333 17.066666666666666 15.256565656565655Q17.195959595959597 15.57979797979798 17.535353535353536 15.854545454545452Q17.874747474747476 16.129292929292927 18.181818181818183 16.339393939393936Q18.48888888888889 16.54949494949495 19.11919191919192 16.74343434343434Q19.74949494949495 16.937373737373736 20.185858585858586 17.05050505050505Q20.622222222222224 17.16363636363636 21.494949494949495 17.30909090909091Q22.36767676767677 17.454545454545453 22.884848484848487 17.535353535353533Q23.402020202020203 17.616161616161616 24.436363636363637 17.745454545454542Q26.56969696969697 18.068686868686868 27.846464646464646 18.294949494949492Q29.123232323232326 18.52121212121212 31.272727272727273 19.119191919191916Q33.422222222222224 19.717171717171716 34.74747474747475 20.395959595959596Q36.07272727272728 21.074747474747472 37.721212121212126 22.31919191919192Q39.369696969696975 23.563636363636363 40.290909090909096 25.0989898989899Q41.21212121212121 26.63434343434343 41.85858585858586 28.913131313131313Q42.505050505050505 31.19191919191919 42.505050505050505 33.971717171717174Q42.505050505050505 37.72121212121212 40.77575757575758 40.64646464646464Q39.04646464646465 43.57171717171717 36.04040404040404 45.365656565656565Q33.034343434343434 47.15959595959596 29.236363636363638 48.08080808080808Q25.43838383838384 49.002020202020205 21.107070707070708 49.002020202020205Q16.25858585858586 49.002020202020205 12.2989898989899 47.98383838383838Q8.33939393939394 46.965656565656566 5.365656565656566 44.7030303030303Q2.3919191919191922 42.44040404040404 1.1959595959595961 39.14343434343434Q0.9050505050505051 38.303030303030305 0.9050505050505051 37.656565656565654Q0.9050505050505051 37.107070707070704 1.098989898989899 36.75151515151515ZM43.21616161616162 47.28888888888889Q43.054545454545455 46.965656565656566 43.054545454545455 46.51313131313131Q43.054545454545455 45.93131313131313 43.34545454545455 45.15555555555556L58.11717171717172 3.393939393939391Q58.56969696969697 1.9717171717171667 59.34545454545455 1.4868686868686822Q60.121212121212125 1.0020202020201978 61.67272727272728 1.0020202020201978H71.46666666666667Q72.9858585858586 1.0020202020201978 73.77777777777779 1.4868686868686822Q74.56969696969698 1.9717171717171667 75.05454545454546 3.329292929292926L89.89090909090909 45.15555555555556Q90.11717171717173 45.83434343434343 90.11717171717173 46.35151515151515Q90.11717171717173 48.0 87.82222222222222 48.0H78.57777777777778Q76.08888888888889 48.0 74.98989898989899 47.3050505050505Q73.89090909090909 46.61010101010101 73.53535353535354 44.96161616161616L72.5979797979798 41.567676767676765H60.153535353535354L59.24848484848485 44.96161616161616Q58.7959595959596 46.64242424242424 57.7939393939394 47.32121212121212Q56.79191919191919 48.0 54.46464646464647 48.0H45.18787878787879Q43.604040404040404 48.0 43.21616161616162 47.28888888888889ZM63.48282828282829 29.543434343434342H69.36565656565656L67.91111111111111 24.242424242424242Q67.39393939393939 22.367676767676766 67.08686868686868 20.07272727272727Q66.77979797979798 17.777777777777775 66.71515151515152 16.452525252525252L66.65050505050506 15.094949494949496H65.97171717171717Q65.97171717171717 15.48282828282828 65.97171717171717 15.87070707070707Q65.97171717171717 20.2989898989899 64.93737373737375 24.177777777777777L63.48282828282829 29.543434343434342ZM92.50909090909092 45.220202020202024V3.7171717171717162Q92.50909090909092 2.133333333333333 93.13939393939394 1.5353535353535364Q93.76969696969698 0.9373737373737328 95.41818181818182 0.9373737373737328H103.4989898989899Q105.27676767676768 0.9373737373737328 106.06868686868687 1.3252525252525231Q106.86060606060606 1.7131313131313135 107.6040404040404 2.9737373737373716L117.26868686868687 23.563636363636363L126.99797979797981 3.0383838383838366Q127.74141414141415 1.7131313131313135 128.45252525252525 1.3252525252525231Q129.16363636363636 0.9373737373737328 130.84444444444446 0.9373737373737328H139.3777777777778Q141.02626262626262 0.9373737373737328 141.65656565656568 1.5353535353535364Q142.2868686868687 2.133333333333333 142.2868686868687 3.7171717171717162V45.220202020202024Q142.2868686868687 46.80404040404041 141.65656565656568 47.4020202020202Q141.02626262626262 48.0 139.3777777777778 48.0H129.9717171717172Q128.32323232323233 48.0 127.69292929292929 47.4020202020202Q127.06262626262627 46.80404040404041 127.06262626262627 45.220202020202024V41.11515151515152Q127.06262626262627 37.01010101010101 127.72525252525253 32.98585858585859Q128.3878787878788 28.96161616161616 130.65050505050505 21.333333333333332H129.84242424242424Q126.93333333333334 29.155555555555555 126.12525252525253 30.9979797979798L123.28080808080809 37.52727272727273Q122.82828282828284 38.56161616161616 122.13333333333334 39.01414141414141Q121.43838383838384 39.46666666666667 120.04848484848486 39.46666666666667H114.23030303030303Q112.84040404040405 39.46666666666667 112.11313131313132 39.03030303030303Q111.38585858585859 38.593939393939394 110.9010101010101 37.52727272727273L107.92727272727274 30.9979797979798Q107.6040404040404 30.31919191919192 106.76363636363637 27.91111111111111Q105.92323232323233 25.5030303030303 105.24444444444445 23.434343434343432L104.56565656565657 21.333333333333332H103.75757575757576Q105.9878787878788 29.93131313131313 106.56969696969698 33.567676767676765Q107.15151515151516 37.204040404040406 107.15151515151516 41.17979797979798V45.220202020202024Q107.15151515151516 46.80404040404041 106.5050505050505 47.4020202020202Q105.85858585858587 48.0 104.21010101010101 48.0H95.41818181818182Q93.76969696969698 48.0 93.13939393939394 47.4020202020202Q92.50909090909092 46.80404040404041 92.50909090909092 45.220202020202024ZM147.16767676767677 30.06060606060606V3.9111111111111114Q147.16767676767677 2.262626262626263 147.7979797979798 1.6323232323232304Q148.42828282828285 1.0020202020201978 150.07676767676767 1.0020202020201978H159.61212121212122Q161.26060606060608 1.0020202020201978 161.8909090909091 1.6323232323232304Q162.52121212121213 2.262626262626263 162.52121212121213 3.9111111111111114V30.9979797979798Q162.52121212121213 33.292929292929294 163.87878787878788 34.521212121212116Q165.23636363636365 35.749494949494945 167.8868686868687 35.749494949494945Q170.53737373737374 35.749494949494945 171.89494949494951 34.521212121212116Q173.25252525252526 33.292929292929294 173.25252525252526 30.9979797979798V3.9111111111111114Q173.25252525252526 2.262626262626263 173.88282828282829 1.6323232323232304Q174.5131313131313 1.0020202020201978 176.16161616161617 1.0020202020201978H185.69696969696972Q187.34545454545454 1.0020202020201978 187.9757575757576 1.6323232323232304Q188.60606060606062 2.262626262626263 188.60606060606062 3.9111111111111114V30.06060606060606Q188.60606060606062 38.852525252525254 183.25656565656567 43.92727272727273Q177.90707070707072 49.002020202020205 167.8868686868687 49.002020202020205Q157.86666666666667 49.002020202020205 152.51717171717172 43.92727272727273Q147.16767676767677 38.852525252525254 147.16767676767677 30.06060606060606ZM193.4868686868687 45.34949494949495V3.652525252525251Q193.4868686868687 2.165656565656562 194.06868686868688 1.5838383838383834Q194.65050505050507 1.0020202020201978 196.13737373737374 1.0020202020201978H206.189898989899Q207.6767676767677 1.0020202020201978 208.25858585858586 1.5838383838383834Q208.84040404040405 2.165656565656562 208.84040404040405 3.652525252525251V45.34949494949495Q208.84040404040405 46.836363636363636 208.25858585858586 47.41818181818182Q207.6767676767677 48.0 206.189898989899 48.0H196.13737373737374Q194.65050505050507 48.0 194.06868686868688 47.41818181818182Q193.4868686868687 46.836363636363636 193.4868686868687 45.34949494949495ZM213.43030303030304 43.15151515151515V39.78989898989899Q213.43030303030304 36.71919191919192 214.5939393939394 35.57171717171717Q215.75757575757578 34.42424242424242 218.86060606060607 34.42424242424242H224.03232323232325Q227.13535353535354 34.42424242424242 228.2989898989899 35.57171717171717Q229.4626262626263 36.71919191919192 229.4626262626263 39.78989898989899V43.15151515151515Q229.4626262626263 46.22222222222222 228.2989898989899 47.36969696969697Q227.13535353535354 48.51717171717172 224.03232323232325 48.51717171717172H218.86060606060607Q215.75757575757578 48.51717171717172 214.5939393939394 47.36969696969697Q213.43030303030304 46.22222222222222 213.43030303030304 43.15151515151515ZM214.10909090909092 1.6484848484848484Q214.0767676767677 0.22626262626262417 214.67474747474748 -0.33939393939394336Q215.27272727272728 -0.9050505050505109 216.75959595959597 -0.9050505050505109H226.29494949494952Q227.78181818181818 -0.9050505050505109 228.37979797979798 -0.33939393939394336Q228.9777777777778 0.22626262626262417 228.94545454545457 1.6484848484848484L227.74949494949496 29.252525252525253Q227.6848484848485 30.77171717171717 227.15151515151516 31.337373737373735Q226.61818181818182 31.903030303030302 225.16363636363639 31.903030303030302H217.82626262626263Q216.3717171717172 31.903030303030302 215.83838383838386 31.337373737373735Q215.3050505050505 30.77171717171717 215.24040404040406 29.252525252525253L214.10909090909092 1.6484848484848484Z"/></g></svg>
