<svg version="1" xmlns="http://www.w3.org/2000/svg" width="1225.333" height="1225.333" viewBox="0 0 919.000000 919.000000"><path d="M432 88.7c-15.3.5-45.1 3.3-63 5.9-163.8 23.6-264.9 117.3-271.9 252.1-2.1 40.6 3 82.1 14.3 115.8 27.4 82 92 133.4 202.2 160.9 31.9 8 55.9 12.2 120.9 21.5 56.7 8.1 83.6 13.8 104.7 22 24.4 9.6 39 22.8 43.4 39.5 3 11.3.8 29-5.2 40.7-1.4 2.9-5.1 7.9-8.1 11-16.4 17.2-43.1 25.9-88.8 28.9-82.8 5.4-136.8-13.9-162.2-57.7-13-22.5-20-31.1-29.4-35.9-4.3-2.2-7.1-2.8-14.1-3.2-14.6-.7-13.1-1.2-103.8 31.3-27.2 9.7-53.5 19.8-58.3 22.2-10.7 5.5-17.8 12.2-21.4 20-2.3 4.8-2.7 7.2-2.7 14.3 0 10.1 2 18.2 8.1 34 15.5 39.4 39.7 73.6 70.8 100l8.2 7h551.6l7.5-5.8c10.8-8.2 33.1-30 42.2-41.4 27-33.5 43.4-70.9 50.6-115.3 2.1-13.3 3-56.1 1.5-73.2-9.5-107-61.4-176.7-160.6-215.6-46.5-18.2-94.2-28.5-191-41.2-47.7-6.2-80.1-14.1-100-24.3-10.4-5.3-12.8-7-19.8-13.9-12-11.9-16.2-27.9-12.2-46.8 6-28.5 32-44 81-48.5 15.9-1.4 49.1-1.2 61.6.5 44.6 5.9 75.9 25.4 94.1 58.7 19.1 35 30.4 41.7 56.1 33.3 12.9-4.2 145-61.5 152.3-66.1 20.5-12.7 24.5-29 13.7-54.9-6.9-16.6-25.4-46.2-40.1-64.1-52.4-64.1-125.4-98.2-233.2-108.8-29.1-2.9-66.6-4-99-2.9z"/></svg>